<svg xmlns="http://www.w3.org/2000/svg" xmlns:xlink="http://www.w3.org/1999/xlink" width="36" height="36" viewBox="0 0 36 36">
  <defs>
    <clipPath id="clip-path">
      <rect id="Rectangle_1087" data-name="Rectangle 1087" width="36" height="36" transform="translate(311 444)" fill="#142977" stroke="#707070" stroke-width="1"/>
    </clipPath>
  </defs>
  <g id="Mask_Group_394" data-name="Mask Group 394" transform="translate(-311 -444)" clip-path="url(#clip-path)">
    <g id="allergy" transform="translate(309.558 442.556)">
      <g id="Group_1103" data-name="Group 1103">
        <circle id="Ellipse_161" data-name="Ellipse 161" cx="6.047" cy="6.047" r="6.047" transform="translate(19.443 20.787)" fill="#b2f0fb"/>
        <circle id="Ellipse_162" data-name="Ellipse 162" cx="1.375" cy="1.375" r="1.375" transform="translate(24.115 25.459)" fill="#ededf9"/>
      </g>
      <g id="Group_1105" data-name="Group 1105">
        <path id="Path_2372" data-name="Path 2372" d="M25.984,12.019a.532.532,0,0,0-.532.532v1.158a.532.532,0,1,0,1.063,0V12.551a.532.532,0,0,0-.532-.532Z" fill="#142977"/>
        <path id="Path_2373" data-name="Path 2373" d="M11.781,27.531a.532.532,0,1,0,1.063,0v-3.26a4.157,4.157,0,0,0-.693-2.3L8.145,15.909a1.595,1.595,0,1,1,2.661-1.759l1.063,1.607a.532.532,0,0,0,.975-.293V7.707A1.227,1.227,0,0,1,13.9,6.462a1.177,1.177,0,0,1,1.3,1.166v7.24a.532.532,0,1,0,1.063,0V3.682a1.177,1.177,0,0,1,1.3-1.169,1.227,1.227,0,0,1,1.059,1.246V14.868a.532.532,0,1,0,1.063,0V6.62a1.181,1.181,0,0,1,.386-.872,1.166,1.166,0,0,1,.91-.3,1.227,1.227,0,0,1,1.059,1.246v8.175a.532.532,0,0,0,1.063,0V9.059a1.177,1.177,0,0,1,1.3-1.172,1.227,1.227,0,0,1,1.059,1.246v1.634a.532.532,0,1,0,1.063,0V9.132a2.3,2.3,0,0,0-2.022-2.3,2.255,2.255,0,0,0-1.4.324v-.46a2.3,2.3,0,0,0-2.022-2.3,2.254,2.254,0,0,0-1.4.324V3.758a2.3,2.3,0,0,0-2.022-2.3A2.24,2.24,0,0,0,15.2,3.679V5.728A2.259,2.259,0,0,0,13.8,5.4a2.3,2.3,0,0,0-2.016,2.3V13.7l-.089-.134A2.659,2.659,0,1,0,7.257,16.5l4.009,6.058a3.1,3.1,0,0,1,.516,1.717Z" fill="#142977"/>
        <path id="Path_2374" data-name="Path 2374" d="M14.136,35.032a.532.532,0,0,0,.532-.532v-1.62a.532.532,0,0,0-1.063,0V34.5a.532.532,0,0,0,.532.532Z" fill="#142977"/>
        <path id="Path_2375" data-name="Path 2375" d="M30.03,22.073a.532.532,0,0,0-.734.77,5.5,5.5,0,1,1-2.1-1.254.532.532,0,1,0,.329-1.011,6.549,6.549,0,0,0-1.471-.3c.03-.011.061-.021.091-.033a9.009,9.009,0,0,0,.277-1.265,9.207,9.207,0,0,0,.092-1.3v-2.3a.532.532,0,1,0-1.063,0v2.3a8.135,8.135,0,0,1-.083,1.153,7.943,7.943,0,0,1-.346,1.44,6.577,6.577,0,0,0-.95,12.984V36.38H12.845V30a.532.532,0,0,0-1.063,0v6.912a.532.532,0,0,0,.532.532H24.605a.532.532,0,0,0,.532-.532V33.4c.117.006.235.01.354.01a6.579,6.579,0,0,0,4.54-11.34Z" fill="#142977"/>
        <path id="Path_2376" data-name="Path 2376" d="M17.656,25.165a1.443,1.443,0,1,0-1.443,1.443A1.443,1.443,0,0,0,17.656,25.165Zm-1.823,0a.38.38,0,1,1,.38.38.38.38,0,0,1-.38-.38Z" fill="#142977"/>
        <path id="Path_2377" data-name="Path 2377" d="M19.68,19.217a1.443,1.443,0,1,0-1.443,1.443,1.443,1.443,0,0,0,1.443-1.443Zm-1.443.38a.38.38,0,1,1,.38-.38A.38.38,0,0,1,18.237,19.6Z" fill="#142977"/>
        <path id="Path_2378" data-name="Path 2378" d="M18.833,35.235a1.443,1.443,0,1,0-1.443-1.443A1.443,1.443,0,0,0,18.833,35.235Zm0-1.823a.38.38,0,1,1-.38.38.38.38,0,0,1,.38-.38Z" fill="#142977"/>
        <g id="Group_1104" data-name="Group 1104">
          <circle id="Ellipse_163" data-name="Ellipse 163" cx="0.835" cy="0.835" r="0.835" transform="translate(22.035 18.078)" fill="#142977"/>
          <circle id="Ellipse_164" data-name="Ellipse 164" cx="0.835" cy="0.835" r="0.835" transform="translate(13.026 17.774)" fill="#142977"/>
          <circle id="Ellipse_165" data-name="Ellipse 165" cx="0.835" cy="0.835" r="0.835" transform="translate(14.466 29.355)" fill="#142977"/>
        </g>
        <path id="Path_2379" data-name="Path 2379" d="M27.175,24.363a.532.532,0,0,0,.011.752c.03.028.054.061.082.091l-.451.261A1.91,1.91,0,0,0,26.024,25v-.521c.036.008.073.012.108.022a.532.532,0,0,0,.291-1.023,3.48,3.48,0,0,0-1.863,0,.532.532,0,0,0,.291,1.023c.035-.01.073-.014.109-.023V25a1.9,1.9,0,0,0-.8.463l-.45-.26c.027-.03.051-.061.08-.09a.532.532,0,1,0-.74-.763,3.463,3.463,0,0,0-.931,1.614.532.532,0,0,0,.386.645.538.538,0,0,0,.131.016.532.532,0,0,0,.515-.4c.008-.033.022-.064.032-.1l.452.261a1.839,1.839,0,0,0,.005.909l-.452.26c-.012-.039-.029-.077-.039-.117a.532.532,0,1,0-1.031.26,3.459,3.459,0,0,0,.931,1.614.532.532,0,1,0,.74-.763c-.024-.023-.043-.05-.066-.074l.454-.262a1.906,1.906,0,0,0,.779.448v.52c-.036-.008-.074-.012-.109-.022a.532.532,0,1,0-.291,1.023,3.463,3.463,0,0,0,1.863,0,.532.532,0,1,0-.291-1.023c-.035.01-.073.014-.108.022v-.522a1.9,1.9,0,0,0,.776-.447l.454.262c-.023.025-.043.052-.067.076a.532.532,0,1,0,.741.763,3.463,3.463,0,0,0,.931-1.613.532.532,0,0,0-1.031-.26c-.01.039-.026.077-.038.115l-.451-.26a1.839,1.839,0,0,0,0-.908l.452-.262c.009.03.023.063.03.094a.532.532,0,0,0,1.031-.26,3.461,3.461,0,0,0-.931-1.613A.532.532,0,0,0,27.175,24.363Zm-1.684,3.314a.844.844,0,1,1,.844-.844A.844.844,0,0,1,25.491,27.676Z" fill="#142977"/>
      </g>
    </g>
  </g>
</svg>
