<svg xmlns="http://www.w3.org/2000/svg" width="38.119" height="31.13" viewBox="0 0 38.119 31.13">
  <g id="Group_1122" data-name="Group 1122" transform="translate(-6875 -1052)">
    <g id="folder" transform="translate(6875 1052)">
      <path id="Path_2445" data-name="Path 2445" d="M37.97,211.695H9.534a.994.994,0,0,1-.959-1.253l6.458-17.707a.994.994,0,0,1,.959-.735H44.428c.654,0,.959.625.959,1.253L38.929,210.96a.994.994,0,0,1-.959.735Z" transform="translate(-7.904 -181.2)" fill="#b2f0fb"/>
      <path id="Path_2446" data-name="Path 2446" d="M36.064,211.695H9.534a.994.994,0,0,1-.959-1.253l6.458-17.707a.994.994,0,0,1,.959-.735h26.53c.654,0,.959.625.959,1.253L37.023,210.96a.994.994,0,0,1-.959.735Z" transform="translate(-7.904 -181.2)" fill="#e3e7f2"/>
      <path id="Path_2447" data-name="Path 2447" d="M40.468,59.913H24.416l-3.177-4.447H9.634a1.1,1.1,0,0,0-1.1,1.1V83.712l.131.006,6.363-17.353a.994.994,0,0,1,.959-.735H41.569V61.014a1.1,1.1,0,0,0-1.1-1.1Z" transform="translate(-7.898 -54.831)" fill="#b2f0fb"/>
      <path id="Path_2448" data-name="Path 2448" d="M38.563,59.913H24.416l-3.177-4.447H9.634a1.1,1.1,0,0,0-1.1,1.1V83.712l.131.006,6.363-17.353a.994.994,0,0,1,.959-.735H39.663V61.014a1.1,1.1,0,0,0-1.1-1.1Z" transform="translate(-7.898 -54.831)" fill="#b2f0fb"/>
      <path id="Path_2449" data-name="Path 2449" d="M17.689,55.466h-.222a1.1,1.1,0,0,0-1.1,1.1V83.712l.131.006,1.192-3.475V55.466Z" transform="translate(-15.148 -54.831)" fill="#fff"/>
      <g id="Group_1121" data-name="Group 1121" transform="translate(0 0)">
        <path id="Path_2450" data-name="Path 2450" d="M30.072,204.431H1.636a1.629,1.629,0,0,1-1.573-2.055l6.475-17.758a1.613,1.613,0,0,1,1.556-1.152H36.53a1.7,1.7,0,0,1,1.595,1.889.635.635,0,0,1-.038.218l-6.458,17.707A1.613,1.613,0,0,1,30.072,204.431ZM8.094,184.736a.36.36,0,0,0-.346.265L1.274,202.76a.341.341,0,0,0,.078.259.352.352,0,0,0,.285.141H30.072a.36.36,0,0,0,.346-.265l6.431-17.639c-.016-.174-.078-.521-.319-.521Z" transform="translate(-0.006 -173.301)" fill="#142977"/>
        <path id="Path_2451" data-name="Path 2451" d="M.766,76.456l-.046,0-.112-.006A.635.635,0,0,1,0,75.814V48.669a1.738,1.738,0,0,1,1.736-1.736H13.342a.636.636,0,0,1,.517.266l2.986,4.181H32.571a1.738,1.738,0,0,1,1.736,1.736v4.617a.635.635,0,0,1-.635.635H8.088a.36.36,0,0,0-.346.265L1.362,76.04A.636.636,0,0,1,.766,76.456ZM1.736,48.2a.466.466,0,0,0-.465.465V72.6l5.261-14.35A1.613,1.613,0,0,1,8.088,57.1H33.036V53.116a.466.466,0,0,0-.465-.465H16.518A.636.636,0,0,1,16,52.385L13.015,48.2Z" transform="translate(0 -46.933)" fill="#142977"/>
      </g>
    </g>
  </g>
</svg>
