<svg xmlns="http://www.w3.org/2000/svg" width="20" height="20" viewBox="0 0 20 20">
  <path id="phone-call_1_" data-name="phone-call (1)" d="M20.357,15.4c-.055-.043-4.023-2.9-5.113-2.7-.52.092-.817.447-1.414,1.157-.1.115-.327.389-.506.585a8.344,8.344,0,0,1-1.1-.448A9.133,9.133,0,0,1,8.009,9.781a8.306,8.306,0,0,1-.448-1.1c.2-.18.471-.411.588-.509C8.856,7.577,9.211,7.28,9.3,6.759c.189-1.08-2.67-5.076-2.7-5.112A1.526,1.526,0,0,0,5.467,1C4.308,1,1,5.291,1,6.014c0,.042.061,4.311,5.325,9.667C11.675,20.939,15.944,21,15.986,21,16.709,21,21,17.692,21,16.533a1.522,1.522,0,0,0-.643-1.133Z" transform="translate(-1 -1)" fill="#023047"/>
</svg>
