<svg xmlns="http://www.w3.org/2000/svg" xmlns:xlink="http://www.w3.org/1999/xlink" width="20" height="20" viewBox="0 0 20 20">
  <defs>
    <clipPath id="clip-path">
      <rect id="Rectangle_916" data-name="Rectangle 916" width="20" height="20" transform="translate(173 700)" fill="#023047"/>
    </clipPath>
  </defs>
  <g id="Mask_Group_273" data-name="Mask Group 273" transform="translate(-173 -700)" clip-path="url(#clip-path)">
    <g id="lock_1_" data-name="lock (1)" transform="translate(175.5 700)">
      <g id="Group_793" data-name="Group 793">
        <path id="Path_1579" data-name="Path 1579" d="M18.333,7.5h-1.25V5.833a5.833,5.833,0,0,0-11.667,0V7.5H4.167a.416.416,0,0,0-.417.417V18.333A1.668,1.668,0,0,0,5.417,20H17.083a1.668,1.668,0,0,0,1.667-1.667V7.917A.416.416,0,0,0,18.333,7.5ZM12.5,16.2a.417.417,0,0,1-.414.463H10.417A.417.417,0,0,1,10,16.2l.263-2.364a1.648,1.648,0,0,1-.682-1.34,1.667,1.667,0,0,1,3.333,0,1.648,1.648,0,0,1-.682,1.34Zm2.086-8.7H7.917V5.833a3.333,3.333,0,1,1,6.667,0Z" transform="translate(-3.75)" fill="#023047"/>
      </g>
    </g>
  </g>
</svg>
