<svg xmlns="http://www.w3.org/2000/svg" xmlns:xlink="http://www.w3.org/1999/xlink" width="36" height="36" viewBox="0 0 36 36">
  <defs>
    <clipPath id="clip-path">
      <rect id="Rectangle_1089" data-name="Rectangle 1089" width="36" height="36" transform="translate(123 444)" fill="#142977" stroke="#707070" stroke-width="1"/>
    </clipPath>
  </defs>
  <g id="Mask_Group_391" data-name="Mask Group 391" transform="translate(-123 -444)" clip-path="url(#clip-path)">
    <g id="injection" transform="translate(123 444)">
      <g id="Group_1069" data-name="Group 1069">
        <g id="Group_1068" data-name="Group 1068">
          <g id="Group_1067" data-name="Group 1067">
            <g id="Group_1066" data-name="Group 1066">
              <g id="Group_1065" data-name="Group 1065">
                <g id="Group_1064" data-name="Group 1064">
                  <g id="Group_1063" data-name="Group 1063">
                    <path id="Path_2361" data-name="Path 2361" d="M10.45,18.271,7.436,21.288a2.578,2.578,0,0,0,0,3.643l3.641,3.645a2.571,2.571,0,0,0,3.639,0L25.009,18.271Z" fill="#b2f0fb"/>
                  </g>
                </g>
              </g>
            </g>
          </g>
        </g>
      </g>
      <g id="Group_1070" data-name="Group 1070">
        <path id="Path_2362" data-name="Path 2362" d="M35.774,10.722,25.27.206a.7.7,0,0,0-.995,0L23.143,1.34a2.072,2.072,0,0,0,0,2.925l2.548,2.551L24.016,8.493,20.5,4.978a.7.7,0,0,0-.995,0L18.18,6.309a1.793,1.793,0,0,0,0,2.531l.348.348-11.59,11.6a3.285,3.285,0,0,0-.066,4.569L5.69,26.545a.7.7,0,0,0,0,.994l.894.9L.226,34.8a.7.7,0,1,0,.995.994l6.357-6.365.893.894a.7.7,0,0,0,.995,0l1.182-1.183a3.274,3.274,0,0,0,4.565-.067L26.8,17.471l.347.347a1.788,1.788,0,0,0,2.53,0l1.33-1.331a.7.7,0,0,0,0-.994L27.5,11.977,29.171,10.3l2.547,2.55a2.066,2.066,0,0,0,2.924,0l1.133-1.134a.7.7,0,0,0,0-.994ZM8.968,28.832,7.181,27.042l.684-.685,1.787,1.789Zm5.25-.752a1.868,1.868,0,0,1-2.644,0L7.933,24.435a1.877,1.877,0,0,1,0-2.649l11.588-11.6,6.286,6.293ZM28.684,16.825a.382.382,0,0,1-.541,0L19.175,7.846a.385.385,0,0,1,0-.543l.832-.833,9.51,9.521ZM26.5,10.982,25.01,9.488l1.675-1.677,1.492,1.494Zm7.145.874a.66.66,0,0,1-.934,0L24.138,3.272a.664.664,0,0,1,0-.937l.635-.636,9.51,9.521Z" fill="#142977"/>
      </g>
    </g>
  </g>
</svg>
