<svg xmlns="http://www.w3.org/2000/svg" xmlns:xlink="http://www.w3.org/1999/xlink" width="36" height="36" viewBox="0 0 36 36">
  <defs>
    <clipPath id="clip-path">
      <rect id="Rectangle_1082" data-name="Rectangle 1082" width="36" height="36" transform="translate(217 334)" fill="#142977" stroke="#707070" stroke-width="1"/>
    </clipPath>
  </defs>
  <g id="Mask_Group_389" data-name="Mask Group 389" transform="translate(-217 -334)" clip-path="url(#clip-path)">
    <g id="clipboard-2" transform="translate(217 334)">
      <g id="Group_1034" data-name="Group 1034">
        <path id="Path_2352" data-name="Path 2352" d="M29.079,5.333A2.212,2.212,0,0,0,26.87,3.123H20.576a.7.7,0,1,0,0,1.406H26.87a.8.8,0,0,1,.8.8V27.279H24.184a.7.7,0,0,0-.7.7V31.47H9.131a.8.8,0,0,1-.8-.8V5.333a.8.8,0,0,1,.8-.8h6.432a.7.7,0,1,0,0-1.406H9.131A2.212,2.212,0,0,0,6.921,5.333V30.667a2.212,2.212,0,0,0,2.209,2.209H26.869a2.212,2.212,0,0,0,2.209-2.209ZM24.887,28.685h1.791l-1.791,1.791ZM26.87,31.47h-.988l1.791-1.791v.988A.8.8,0,0,1,26.87,31.47Z" fill="#142977"/>
        <path id="Path_2353" data-name="Path 2353" d="M15.622,9.5l-1.871,3.345h-1.8a.7.7,0,0,0,0,1.406h2.208a.7.7,0,0,0,.614-.36l1.2-2.141,1.17,4.826a.7.7,0,0,0,1.265.229l1.966-2.9.426.834a.7.7,0,0,0,.618.383l2.617.03a.7.7,0,0,0,.016-1.406l-2.192-.025L21.087,12.2a.7.7,0,0,0-1.208-.075L18.137,14.7,16.919,9.675a.7.7,0,0,0-1.3-.178Z" fill="#142977"/>
      </g>
      <g id="Group_1054" data-name="Group 1054">
        <g id="Group_1040" data-name="Group 1040">
          <g id="Group_1039" data-name="Group 1039">
            <g id="Group_1038" data-name="Group 1038">
              <g id="Group_1037" data-name="Group 1037">
                <g id="Group_1036" data-name="Group 1036">
                  <g id="Group_1035" data-name="Group 1035">
                    <path id="Path_2354" data-name="Path 2354" d="M12.048.7V1.841a4.37,4.37,0,0,0,4.37,4.37h3.163a4.37,4.37,0,0,0,4.37-4.37V.7Z" fill="#b2f0fb"/>
                  </g>
                </g>
              </g>
            </g>
          </g>
        </g>
        <g id="Group_1046" data-name="Group 1046">
          <g id="Group_1045" data-name="Group 1045">
            <g id="Group_1044" data-name="Group 1044">
              <g id="Group_1043" data-name="Group 1043">
                <g id="Group_1042" data-name="Group 1042">
                  <g id="Group_1041" data-name="Group 1041">
                    <path id="Path_2355" data-name="Path 2355" d="M28.619,36H7.381A3.589,3.589,0,0,1,3.8,32.415V3.585A3.589,3.589,0,0,1,7.381,0H28.619A3.589,3.589,0,0,1,32.2,3.585v28.83A3.589,3.589,0,0,1,28.619,36ZM7.381,1.406A2.181,2.181,0,0,0,5.2,3.585v28.83a2.181,2.181,0,0,0,2.179,2.179H28.619A2.181,2.181,0,0,0,30.8,32.415V3.585a2.181,2.181,0,0,0-2.179-2.179Z" fill="#142977"/>
                  </g>
                </g>
              </g>
            </g>
          </g>
        </g>
        <g id="Group_1053" data-name="Group 1053">
          <g id="Group_1052" data-name="Group 1052">
            <g id="Group_1051" data-name="Group 1051">
              <g id="Group_1050" data-name="Group 1050">
                <g id="Group_1049" data-name="Group 1049">
                  <g id="Group_1048" data-name="Group 1048">
                    <g id="Group_1047" data-name="Group 1047">
                      <path id="Path_2356" data-name="Path 2356" d="M19.942,19.237a2,2,0,0,0-1.884,1.029.069.069,0,0,1-.121,0,2,2,0,0,0-1.881-1.029,2.4,2.4,0,0,0-2.483,2.541,3.441,3.441,0,0,0,.513,1.869c.768,1.295,3.3,2.362,3.817,2.693a.175.175,0,0,0,.188,0c.52-.329,3.05-1.388,3.824-2.693a3.44,3.44,0,0,0,.512-1.869A2.4,2.4,0,0,0,19.942,19.237Z" fill="#b2f0fb"/>
                    </g>
                  </g>
                </g>
              </g>
            </g>
          </g>
        </g>
      </g>
    </g>
  </g>
</svg>
