<svg xmlns="http://www.w3.org/2000/svg" xmlns:xlink="http://www.w3.org/1999/xlink" width="20" height="20" viewBox="0 0 20 20">
  <defs>
    <clipPath id="clip-path">
      <rect id="Rectangle_716" data-name="Rectangle 716" width="20" height="20" transform="translate(30 571)" fill="#219ebc" stroke="#707070" stroke-width="1"/>
    </clipPath>
  </defs>
  <g id="Mask_Group_191" data-name="Mask Group 191" transform="translate(-30 -571)" clip-path="url(#clip-path)">
    <g id="calendar_5_" data-name="calendar (5)" transform="translate(30 571)">
      <g id="Group_661" data-name="Group 661">
        <path id="Path_1272" data-name="Path 1272" d="M3.022,20H16.978a2.654,2.654,0,0,0,2.652-2.652V4.133a2.654,2.654,0,0,0-2.652-2.652H15.926V.741a.741.741,0,0,0-1.482,0v.741H5.556V.741a.741.741,0,0,0-1.482,0v.741H3.022A2.654,2.654,0,0,0,.37,4.133V17.348A2.654,2.654,0,0,0,3.022,20ZM1.852,4.133a1.173,1.173,0,0,1,1.17-1.17H4.074V3.7a.741.741,0,0,0,1.481,0V2.963h8.889V3.7a.741.741,0,0,0,1.481,0V2.963h1.052a1.173,1.173,0,0,1,1.17,1.17V6.3H1.852Zm0,3.644h16.3v9.57a1.173,1.173,0,0,1-1.17,1.17H3.022a1.173,1.173,0,0,1-1.17-1.17Z" fill="#219ebc"/>
      </g>
    </g>
  </g>
</svg>
