<svg xmlns="http://www.w3.org/2000/svg" xmlns:xlink="http://www.w3.org/1999/xlink" width="20" height="20" viewBox="0 0 20 20">
  <defs>
    <clipPath id="clip-path">
      <rect id="Rectangle_984" data-name="Rectangle 984" width="20" height="20" transform="translate(30 486)" fill="#219ebc" stroke="#707070" stroke-width="1"/>
    </clipPath>
  </defs>
  <g id="Mask_Group_291" data-name="Mask Group 291" transform="translate(-30 -486)" clip-path="url(#clip-path)">
    <g id="phone-call_14_" data-name="phone-call (14)" transform="translate(29.378 485.353)">
      <path id="Path_1999" data-name="Path 1999" d="M15.6,13.923a2,2,0,0,0-2.827,0l-.965.965a17.388,17.388,0,0,1-3-2.408,17.707,17.707,0,0,1-2.408-3l.965-.965a2,2,0,0,0,0-2.827L5.481,3.812a1.949,1.949,0,0,0-1.4-.585,2,2,0,0,0-1.417.585l-.9.9A4.237,4.237,0,0,0,.665,8.2C.878,10.7,2.514,13.7,5.036,16.224s5.554,4.157,8.049,4.4a5.235,5.235,0,0,0,.559,0,4.038,4.038,0,0,0,2.934-1.091l.9-.9a2,2,0,0,0,.585-1.417,1.949,1.949,0,0,0-.585-1.4Zm.938,3.765-.9.9a3.04,3.04,0,0,1-2.435.665c-2.162-.186-4.916-1.716-7.191-3.991S2.2,10.251,2,8.089a3.013,3.013,0,0,1,.665-2.435l.938-.9a.675.675,0,0,1,.945,0l1.883,1.9a.665.665,0,0,1,0,.938L5.1,8.92a.665.665,0,0,0-.106.8,18.286,18.286,0,0,0,2.88,3.712,18.286,18.286,0,0,0,3.712,2.88.665.665,0,0,0,.8-.106l1.33-1.33a.665.665,0,0,1,.938,0l1.883,1.883a.65.65,0,0,1,0,.925Z" fill="#219ebc"/>
      <path id="Path_2000" data-name="Path 2000" d="M17.694,3.585A9.925,9.925,0,0,0,10.643.665a.665.665,0,0,0,0,1.33,8.648,8.648,0,0,1,8.648,8.721.665.665,0,1,0,1.33,0,9.918,9.918,0,0,0-2.927-7.131Z" fill="#219ebc"/>
      <path id="Path_2001" data-name="Path 2001" d="M13.909,7.39a3.991,3.991,0,0,1,1.177,2.867.665.665,0,0,0,1.33,0A5.322,5.322,0,0,0,11.1,4.869a.665.665,0,0,0,0,1.33A3.991,3.991,0,0,1,13.909,7.39Z" fill="#219ebc"/>
    </g>
  </g>
</svg>
