<svg xmlns="http://www.w3.org/2000/svg" xmlns:xlink="http://www.w3.org/1999/xlink" width="20" height="20" viewBox="0 0 20 20">
  <defs>
    <clipPath id="clip-path">
      <rect id="Rectangle_717" data-name="Rectangle 717" width="20" height="20" transform="translate(30 611)" fill="#219ebc" stroke="#707070" stroke-width="1"/>
    </clipPath>
  </defs>
  <g id="Mask_Group_192" data-name="Mask Group 192" transform="translate(-30 -611)" clip-path="url(#clip-path)">
    <g id="sex" transform="translate(30 611)">
      <path id="Path_1273" data-name="Path 1273" d="M10.586,5.313a5.293,5.293,0,1,0-5.859,5.241V14.1H2.969a.586.586,0,0,0,0,1.172H4.727v1.758a.586.586,0,0,0,1.172,0V15.273H7.656a.586.586,0,0,0,0-1.172H5.9V10.553a5.281,5.281,0,0,0,4.688-5.241Zm-9.414,0a4.121,4.121,0,1,1,4.141,4.1A4.145,4.145,0,0,1,1.172,5.313Z" fill="#219ebc"/>
      <path id="Path_1274" data-name="Path 1274" d="M15.273,9.446V4.383l1.344,1.343a.586.586,0,1,0,.829-.829L15.1,2.554a.586.586,0,0,0-.829,0L11.929,4.9a.586.586,0,0,0,.829.829L14.1,4.383V9.447A5.294,5.294,0,0,0,14.688,20a5.292,5.292,0,0,0,.586-10.554Zm-.586,9.382a4.121,4.121,0,1,1,4.141-4.141A4.126,4.126,0,0,1,14.688,18.828Z" fill="#219ebc"/>
    </g>
  </g>
</svg>
