<svg xmlns="http://www.w3.org/2000/svg" xmlns:xlink="http://www.w3.org/1999/xlink" width="20" height="20" viewBox="0 0 20 20">
  <defs>
    <clipPath id="clip-path">
      <rect id="Rectangle_1071" data-name="Rectangle 1071" width="20" height="20" transform="translate(37 692)" fill="#219ebc" stroke="#707070" stroke-width="1"/>
    </clipPath>
  </defs>
  <g id="Mask_Group_345" data-name="Mask Group 345" transform="translate(-37 -692)" clip-path="url(#clip-path)">
    <g id="Layer_2" data-name="Layer 2" transform="translate(36.333 691.333)">
      <path id="Path_2251" data-name="Path 2251" d="M14.873,20.667H9.787a1.853,1.853,0,0,1-1.24-.473L2.613,14.86A1.86,1.86,0,0,1,2,13.507V2.46A1.793,1.793,0,0,1,3.793.667h11.08A1.793,1.793,0,0,1,16.667,2.46V18.873a1.793,1.793,0,0,1-1.793,1.793ZM3.793,2a.46.46,0,0,0-.46.46V13.507a.527.527,0,0,0,.173.393L9.44,19.233a.52.52,0,0,0,.347.133h5.087a.46.46,0,0,0,.46-.46V2.46a.46.46,0,0,0-.46-.46Z" fill="#219ebc"/>
      <path id="Path_2252" data-name="Path 2252" d="M10,19.627H8.667V14.833a.127.127,0,0,0-.127-.127H2.667V13.373H8.54A1.46,1.46,0,0,1,10,14.833Z" fill="#219ebc"/>
      <rect id="Rectangle_1152" data-name="Rectangle 1152" width="6.667" height="1.333" rx="0.667" transform="translate(5.78 6.873)" fill="#219ebc"/>
      <rect id="Rectangle_1153" data-name="Rectangle 1153" width="2.667" height="1.333" rx="0.667" transform="translate(5.78 4)" fill="#219ebc"/>
      <path id="Path_2253" data-name="Path 2253" d="M17.667,17.767a1.694,1.694,0,0,1-.333-.033l-1.433-.24.22-1.333,1.46.247a.353.353,0,0,0,.307-.06.333.333,0,0,0,.127-.26V5.233a.34.34,0,0,0-.407-.327l-1.507.2-.173-1.333,1.46-.193a1.62,1.62,0,0,1,1.333.347,1.66,1.66,0,0,1,.613,1.307V16.1a1.673,1.673,0,0,1-1.667,1.667Z" fill="#219ebc"/>
    </g>
  </g>
</svg>
