<svg xmlns="http://www.w3.org/2000/svg" xmlns:xlink="http://www.w3.org/1999/xlink" width="20" height="20" viewBox="0 0 20 20">
  <defs>
    <clipPath id="clip-path">
      <rect id="Rectangle_815" data-name="Rectangle 815" width="20" height="20" transform="translate(30 1211)" fill="#e85d04" stroke="#707070" stroke-width="1"/>
    </clipPath>
  </defs>
  <g id="Mask_Group_235" data-name="Mask Group 235" transform="translate(-30 -1211)" clip-path="url(#clip-path)">
    <g id="layer1" transform="translate(28 110.484)">
      <path id="path52" d="M11.989,1100.516a1,1,0,0,0-.99,1.016v8.038a1,1,0,1,0,2,0v-8.038a1,1,0,0,0-1.012-1.016Zm5.835,2.015c-.033,0-.065,0-.1,0a1.006,1.006,0,0,0-.555,1.773,8,8,0,1,1-10.372.029,1.008,1.008,0,0,0,.111-1.417,1,1,0,0,0-1.41-.112,10.075,10.075,0,0,0,6.5,17.708,10.074,10.074,0,0,0,6.46-17.738,1,1,0,0,0-.641-.247Z" fill="#e85d04"/>
    </g>
  </g>
</svg>
