<svg xmlns="http://www.w3.org/2000/svg" xmlns:xlink="http://www.w3.org/1999/xlink" width="20" height="20" viewBox="0 0 20 20">
  <defs>
    <clipPath id="clip-path">
      <rect id="Rectangle_933" data-name="Rectangle 933" width="20" height="20" transform="translate(37 132)" fill="#219ebc" stroke="#707070" stroke-width="1"/>
    </clipPath>
  </defs>
  <g id="Mask_Group_341" data-name="Mask Group 341" transform="translate(-37 -132)" clip-path="url(#clip-path)">
    <g id="user_12_" data-name="user (12)" transform="translate(37 132)">
      <g id="Group_928" data-name="Group 928">
        <path id="Path_2246" data-name="Path 2246" d="M19.949,17.138a.781.781,0,0,0-1.53.318.816.816,0,0,1-.165.684.794.794,0,0,1-.625.3H2.371a.794.794,0,0,1-.625-.3.816.816,0,0,1-.165-.684,8.632,8.632,0,0,1,8.212-6.835q.1,0,.207,0t.208,0a8.594,8.594,0,0,1,6.941,3.815.781.781,0,1,0,1.3-.87,10.162,10.162,0,0,0-5.266-4,5.312,5.312,0,1,0-6.359,0A10.161,10.161,0,0,0,.051,17.138,2.373,2.373,0,0,0,2.371,20H17.629a2.374,2.374,0,0,0,2.32-2.862ZM6.25,5.313a3.75,3.75,0,1,1,3.94,3.745l-.19,0-.189,0A3.755,3.755,0,0,1,6.25,5.313Z" fill="#219ebc"/>
      </g>
    </g>
  </g>
</svg>
