<svg xmlns="http://www.w3.org/2000/svg" xmlns:xlink="http://www.w3.org/1999/xlink" width="20" height="20" viewBox="0 0 20 20">
  <defs>
    <clipPath id="clip-path">
      <rect id="Rectangle_1066" data-name="Rectangle 1066" width="20" height="20" transform="translate(37 354)" fill="#219ebc" stroke="#707070" stroke-width="1"/>
    </clipPath>
  </defs>
  <g id="Mask_Group_347" data-name="Mask Group 347" transform="translate(-37 -354)" clip-path="url(#clip-path)">
    <g id="setting-lines" transform="translate(37 354)">
      <path id="Path_2255" data-name="Path 2255" d="M4.274,3.48H.588a.588.588,0,0,1,0-1.176H4.274a.588.588,0,0,1,0,1.176Z" fill="#219ebc"/>
      <path id="Path_2256" data-name="Path 2256" d="M6.38,5.586A2.694,2.694,0,1,1,9.074,2.892,2.7,2.7,0,0,1,6.38,5.586Zm0-4.212A1.518,1.518,0,1,0,7.9,2.892,1.52,1.52,0,0,0,6.38,1.374Z" fill="#219ebc"/>
      <path id="Path_2257" data-name="Path 2257" d="M19.412,3.48H10.62a.588.588,0,0,1,0-1.176h8.792a.588.588,0,0,1,0,1.176Z" fill="#219ebc"/>
      <path id="Path_2258" data-name="Path 2258" d="M14.278,12.694A2.694,2.694,0,1,1,16.972,10,2.7,2.7,0,0,1,14.278,12.694Zm0-4.212A1.518,1.518,0,1,0,15.8,10,1.519,1.519,0,0,0,14.278,8.482Z" fill="#219ebc"/>
      <path id="Path_2259" data-name="Path 2259" d="M10.038,10.588H.588a.588.588,0,0,1,0-1.176h9.45a.588.588,0,0,1,0,1.176Z" fill="#219ebc"/>
      <path id="Path_2260" data-name="Path 2260" d="M19.412,10.588H16.384a.588.588,0,1,1,0-1.176h3.028a.588.588,0,0,1,0,1.176Z" fill="#219ebc"/>
      <path id="Path_2261" data-name="Path 2261" d="M5.722,19.8a2.694,2.694,0,1,1,2.694-2.695A2.7,2.7,0,0,1,5.722,19.8Zm0-4.212A1.518,1.518,0,1,0,7.24,17.108,1.519,1.519,0,0,0,5.722,15.59Z" fill="#219ebc"/>
      <path id="Path_2262" data-name="Path 2262" d="M19.412,17.7H9.962a.588.588,0,0,1,0-1.176h9.45a.588.588,0,0,1,0,1.176Z" fill="#219ebc"/>
      <path id="Path_2263" data-name="Path 2263" d="M3.616,17.7H.588a.588.588,0,0,1,0-1.177H3.616a.588.588,0,0,1,0,1.177Z" fill="#219ebc"/>
    </g>
  </g>
</svg>
