<svg xmlns="http://www.w3.org/2000/svg" xmlns:xlink="http://www.w3.org/1999/xlink" width="20" height="20" viewBox="0 0 20 20">
  <defs>
    <clipPath id="clip-path">
      <rect id="Rectangle_1065" data-name="Rectangle 1065" width="20" height="20" transform="translate(136 142)" fill="#fff" stroke="#707070" stroke-width="1"/>
    </clipPath>
  </defs>
  <g id="Mask_Group_314" data-name="Mask Group 314" transform="translate(-136 -142)" clip-path="url(#clip-path)">
    <g id="Layer_2" data-name="Layer 2" transform="translate(136 144.415)">
      <path id="Path_2167" data-name="Path 2167" d="M10.4,8.968H5.066a.667.667,0,1,0,0,1.333H10.4a.667.667,0,1,0,0-1.333Z" transform="translate(-1.067 -3.645)" fill="#fff"/>
      <path id="Path_2168" data-name="Path 2168" d="M10.4,13.031H5.066a.667.667,0,1,0,0,1.333H10.4a.667.667,0,1,0,0-1.333Z" transform="translate(-1.067 -4.014)" fill="#fff"/>
      <path id="Path_2169" data-name="Path 2169" d="M21.312,3.676a2.053,2.053,0,0,0-2.827,0L13.9,8.283a1.14,1.14,0,0,0-.34.813v1.187a1.16,1.16,0,0,0,1.16,1.16H15.9a1.187,1.187,0,0,0,.82-.34l4.566-4.573a2,2,0,0,0,0-2.827Z" transform="translate(-1.899 -3.112)" fill="#fff"/>
      <path id="Path_2170" data-name="Path 2170" d="M20.066,8.88a.667.667,0,0,0-.667.667v6.7a.747.747,0,0,1-.753.753H2.82a.747.747,0,0,1-.753-.753V5.753A.747.747,0,0,1,2.82,5H14.006a.667.667,0,0,0,0-1.333H2.82A2.087,2.087,0,0,0,.733,5.753V16.246A2.087,2.087,0,0,0,2.82,18.333H18.646a2.087,2.087,0,0,0,2.087-2.087V9.58a.667.667,0,0,0-.667-.7Z" transform="translate(-0.733 -3.163)" fill="#fff"/>
    </g>
  </g>
</svg>
