<svg xmlns="http://www.w3.org/2000/svg" xmlns:xlink="http://www.w3.org/1999/xlink" width="20" height="20" viewBox="0 0 20 20">
  <defs>
    <clipPath id="clip-path">
      <rect id="Rectangle_1067" data-name="Rectangle 1067" width="20" height="20" transform="translate(37 412)" fill="#219ebc" stroke="#707070" stroke-width="1"/>
    </clipPath>
  </defs>
  <g id="Mask_Group_342" data-name="Mask Group 342" transform="translate(-37 -412)" clip-path="url(#clip-path)">
    <path id="video-camera-2" d="M19.743,5.122a.586.586,0,0,0-.546-.059L13.724,7.252V5.607a1.843,1.843,0,0,0-1.841-1.841H1.841A1.843,1.843,0,0,0,0,5.607v8.786a1.843,1.843,0,0,0,1.841,1.841H11.883a1.843,1.843,0,0,0,1.841-1.841V12.748L19.2,14.937a.586.586,0,0,0,.8-.544V5.607a.586.586,0,0,0-.257-.485Zm-7.19,9.272a.67.67,0,0,1-.669.669H1.841a.67.67,0,0,1-.669-.669V5.607a.67.67,0,0,1,.669-.669H11.883a.67.67,0,0,1,.669.669Zm6.276-.865-5.1-2.042V8.514l5.1-2.042Z" transform="translate(37 412)" fill="#219ebc"/>
  </g>
</svg>
